<?xml version="1.0" encoding="utf-8"?>
<!-- Generator: Adobe Illustrator 26.1.0, SVG Export Plug-In . SVG Version: 6.00 Build 0)  -->
<svg version="1.1" id="Layer_1" xmlns="http://www.w3.org/2000/svg" xmlns:xlink="http://www.w3.org/1999/xlink" x="0px" y="0px"
	 viewBox="0 0 512 100" style="enable-background:new 0 0 512 100;" xml:space="preserve">
<style type="text/css">
	.st0{fill:#FF0000;}
	.st1{fill:#FFFFFF;}
</style>
<g>
	<path id="lozenge-path" class="st0" d="M179.09,17.55c-1.5-5.61-5.92-10.04-11.56-11.56c-10.19-2.72-51.05-2.72-51.05-2.72
		s-40.84,0-51.05,2.72c-5.61,1.5-10.04,5.92-11.56,11.56C51.16,27.74,51.16,49,51.16,49s0,21.26,2.72,31.45
		c1.5,5.61,5.92,10.04,11.56,11.56c10.21,2.72,51.05,2.72,51.05,2.72s40.86,0,51.05-2.72c5.61-1.5,10.04-5.92,11.56-11.56
		c2.72-10.19,2.72-31.45,2.72-31.45S181.82,27.74,179.09,17.55z"/>
	<polygon id="play-polygon" class="st1" points="103.43,68.6 137.38,49 103.43,29.4 	"/>
</g>
<g>
	<g id="youtube-paths">
		<path class="st1" d="M240.81,86.48c-2.58-1.75-4.43-4.45-5.51-8.13c-1.08-3.68-1.64-8.56-1.64-14.67v-8.31
			c0-6.17,0.62-11.12,1.87-14.86c1.25-3.74,3.2-6.46,5.84-8.17c2.64-1.7,6.11-2.58,10.41-2.58c4.24,0,7.63,0.87,10.19,2.62
			c2.56,1.75,4.43,4.47,5.61,8.17c1.18,3.7,1.77,8.65,1.77,14.8v8.31c0,6.11-0.58,11.02-1.73,14.72c-1.14,3.7-3.01,6.42-5.61,8.13
			c-2.58,1.7-6.09,2.58-10.52,2.58C246.96,89.1,243.38,88.22,240.81,86.48z M255.29,77.5c0.71-1.87,1.08-4.93,1.08-9.15V50.5
			c0-4.12-0.35-7.11-1.08-9.02c-0.71-1.89-1.97-2.85-3.78-2.85c-1.75,0-2.97,0.96-3.7,2.85c-0.71,1.89-1.08,4.91-1.08,9.02v17.85
			c0,4.24,0.33,7.3,1.02,9.15c0.69,1.87,1.93,2.81,3.74,2.81C253.32,80.3,254.57,79.37,255.29,77.5z"/>
		<path class="st1" d="M439.25,63.82v2.89c0,3.68,0.1,6.42,0.33,8.27c0.21,1.83,0.67,3.18,1.35,4.01c0.69,0.83,1.75,1.27,3.18,1.27
			c1.93,0,3.26-0.75,3.97-2.24c0.71-1.5,1.1-3.99,1.16-7.48l11.12,0.64c0.06,0.5,0.08,1.18,0.08,2.06c0,5.3-1.45,9.25-4.34,11.87
			c-2.89,2.62-6.98,3.93-12.28,3.93c-6.36,0-10.81-2-13.37-5.99c-2.56-3.99-3.82-10.14-3.82-18.5v-10c0-8.61,1.33-14.86,3.97-18.83
			c2.64-3.95,7.17-5.92,13.59-5.92c4.43,0,7.82,0.81,10.19,2.43c2.37,1.62,4.03,4.14,5.01,7.57c0.96,3.43,1.45,8.17,1.45,14.2v9.81
			h-21.6V63.82z M440.89,39.71c-0.64,0.81-1.08,2.14-1.31,3.97c-0.23,1.83-0.33,4.64-0.33,8.36v4.12h9.44v-4.12
			c0-3.68-0.12-6.46-0.37-8.36s-0.71-3.24-1.35-4.01s-1.66-1.16-3.03-1.16C442.55,38.48,441.53,38.9,440.89,39.71z"/>
		<path id="XMLID_41_" class="st1" d="M209.42,62.74L194.74,9.76h12.8l5.13,24.01c1.31,5.92,2.27,10.95,2.89,15.13h0.37
			c0.44-2.99,1.39-8,2.89-15.05l5.32-24.11h12.8l-14.84,53v25.42h-12.7V62.74z"/>
		<path id="XMLID_38_" class="st1" d="M310.98,30.87v57.26H300.9l-1.12-7h-0.27c-2.74,5.3-6.86,7.94-12.33,7.94
			c-3.8,0-6.61-1.25-8.42-3.74c-1.81-2.49-2.7-6.38-2.7-11.68V30.87h12.89v42.05c0,2.56,0.27,4.39,0.83,5.47
			c0.56,1.08,1.5,1.64,2.81,1.64c1.12,0,2.2-0.33,3.22-1.02c1.02-0.69,1.79-1.56,2.29-2.62V30.87H310.98z"/>
		<path id="XMLID_36_" class="st1" d="M377.12,30.87v57.26h-10.08l-1.12-7h-0.27c-2.74,5.3-6.86,7.94-12.33,7.94
			c-3.8,0-6.61-1.25-8.42-3.74c-1.81-2.49-2.7-6.38-2.7-11.68V30.87h12.89v42.05c0,2.56,0.27,4.39,0.83,5.47
			c0.56,1.08,1.5,1.64,2.81,1.64c1.12,0,2.2-0.33,3.22-1.02c1.02-0.69,1.79-1.56,2.29-2.62V30.87H377.12z"/>
		<path id="XMLID_35_" class="st1" d="M346.02,20.13h-12.8v68.01H320.6V20.13h-12.8V9.76H346v10.37H346.02z"/>
		<path class="st1" d="M419.79,40.04c-0.79-3.62-2.04-6.24-3.78-7.86c-1.75-1.62-4.14-2.43-7.19-2.43c-2.37,0-4.57,0.67-6.63,2.02
			c-2.06,1.33-3.64,3.1-4.76,5.28h-0.1V6.87h-12.43v81.29h10.64l1.31-5.43h0.27c1,1.93,2.49,3.45,4.49,4.57
			c2,1.12,4.2,1.68,6.63,1.68c4.37,0,7.57-2.02,9.62-6.03s3.08-10.29,3.08-18.83v-9.06C420.96,48.67,420.56,43.66,419.79,40.04z
			 M407.96,63.4c0,4.18-0.17,7.44-0.52,9.81c-0.33,2.37-0.91,4.05-1.73,5.05c-0.81,1-1.89,1.5-3.26,1.5c-1.06,0-2.04-0.25-2.95-0.75
			c-0.89-0.5-1.64-1.25-2.2-2.24V44.24c0.44-1.56,1.18-2.83,2.24-3.82s2.2-1.5,3.45-1.5c1.31,0,2.33,0.52,3.03,1.54
			c0.71,1.02,1.21,2.76,1.5,5.18c0.27,2.43,0.42,5.88,0.42,10.37v7.4H407.96z"/>
	</g>
</g>
</svg>
